<svg width="40" height="41" viewBox="0 0 40 41" fill="none" xmlns="http://www.w3.org/2000/svg">
<path d="M0 3.7928L36.2072 0L40 36.2072L3.7928 40.0351L0 3.7928H0Z" fill="#FFCE33"/>
<path d="M34.1705 8.84987L33.6788 4.24934L33.5735 4.21422C32.6253 3.89816 31.6419 3.65233 30.6586 3.54697C29.6753 3.44162 28.7271 3.44162 27.7789 3.51185C26.4093 3.65233 25.2855 3.93327 24.4778 4.3547C23.5647 4.84636 23.0028 5.37313 22.6867 6.11062C22.476 6.56716 22.3355 6.95347 22.3004 7.51536C22.2653 8.11238 22.3004 8.92011 22.4058 10.1493L22.9325 15.3117C23.073 16.6462 23.2486 17.5593 23.4593 18.1563C23.67 18.7533 23.9159 18.9991 24.267 19.3503L24.3724 19.4557C24.8992 20.0176 25.6015 20.4039 26.4795 20.5795C27.1819 20.755 28.2706 20.9306 29.6402 20.7902C30.6937 20.6848 31.6771 20.2985 32.5901 19.9122C33.5383 19.5259 34.3812 18.9991 35.1538 18.367L35.224 18.2968L34.4163 10.7814L28.6569 11.3784L28.9729 14.504L30.9747 14.2932L31.1854 16.3652C30.9044 16.6813 30.167 16.9974 29.1836 17.1027C28.5866 17.173 28.1652 17.0325 27.8491 16.7164C27.5331 16.3652 27.3575 15.8385 27.2521 14.9956L26.6902 9.55224C26.62 8.74451 26.6551 8.18262 26.9009 7.76119C27.1116 7.37489 27.5331 7.16418 28.095 7.09394C28.6569 7.02371 29.0783 7.16418 29.3592 7.44513C29.6753 7.76119 29.8509 8.21773 29.9211 8.92011L29.9562 9.20105L34.1705 8.84987ZM11.7648 22.5461C13.1345 22.4056 14.1529 21.9842 14.785 21.6681C15.5928 21.2818 16.1898 20.7902 16.6112 20.1229L16.6814 20.0176C16.9273 19.5961 17.138 19.2801 17.2082 18.6831C17.2785 18.0158 17.3838 17.9456 17.3487 17.3837C17.2433 16.2599 16.9273 15.4522 16.3654 14.7498C15.9088 14.1879 15.3118 13.8016 14.5392 13.5909C15.1011 13.2397 15.5576 12.7831 15.8386 12.1861C16.2249 11.4486 16.3303 10.676 16.2249 9.69271C16.0493 8.11238 15.5225 7.16418 14.3987 6.42669C13.3803 5.75944 11.8 5.51361 9.72797 5.72432L3.19592 6.42669L3.51199 9.34153L3.65246 9.37665C3.93341 9.41177 4.14412 9.51712 4.2846 9.65759C4.42507 9.83319 4.49531 10.1844 4.56555 10.8165L5.37327 18.6128C5.44351 19.245 5.44351 19.5961 5.33815 19.8068C5.26792 19.9824 5.05721 20.1229 4.77626 20.1932L4.63578 20.2283L4.95185 23.2133L11.7648 22.5461ZM12.3619 15.8385C12.7482 16.1194 12.9238 16.5057 12.994 17.1378C13.0642 17.77 12.9589 18.1914 12.6779 18.5075C12.397 18.8235 11.9053 19.0342 11.1678 19.1045L9.93868 19.245L9.55238 15.698L10.7113 15.5926C11.4488 15.4873 12.0107 15.5575 12.3619 15.8385ZM11.6946 11.7296C11.4488 11.9754 10.9571 12.151 10.2196 12.2564L9.16607 12.3617L8.85001 9.41176L9.90356 9.30641C10.6059 9.23617 11.1327 9.30641 11.4488 9.51712C11.7648 9.76295 11.9404 10.079 11.9756 10.6409C12.0458 11.2028 11.9053 11.4838 11.6946 11.7296ZM16.541 7.02371C16.5761 7.1993 16.6112 7.33977 16.6463 7.55048L18.7183 16.5057L18.7534 16.6462L21.0361 16.4004L21.2117 7.12906V6.14574C21.1415 5.44337 20.8957 4.98683 20.404 4.60053C19.9475 4.24934 19.3153 4.07375 18.613 4.1791C17.8755 4.24934 17.3487 4.53029 16.9624 4.98683C16.5761 5.47849 16.4356 5.97015 16.5058 6.67252L16.541 6.91835V7.02371ZM18.5778 18.367C18.1915 18.8235 18.0511 19.3503 18.0862 19.9473C18.1564 20.5092 18.4022 21.0009 18.8939 21.3872C19.3504 21.7735 19.8772 21.914 20.4742 21.8788C21.0713 21.8086 21.5629 21.5628 21.9141 21.1062C22.3004 20.6497 22.4409 20.1229 22.3706 19.5259C22.3004 18.9289 22.0546 18.4372 21.598 18.086C21.1415 17.6997 20.6147 17.5593 20.0177 17.6295C19.4558 17.6295 18.9641 17.9104 18.5778 18.367ZM14.0827 29.4644C14.469 29.2186 14.785 28.8674 14.9957 28.446C15.2767 27.8841 15.3821 27.2871 15.3118 26.5496C15.1713 25.3556 14.785 24.583 13.9422 24.0562C13.2047 23.5645 12.116 23.4241 10.4303 23.5996L5.16256 24.1615L5.40839 26.374H5.54886C5.75958 26.4091 5.90005 26.4794 5.97029 26.5847C6.07564 26.7252 6.11076 26.971 6.181 27.4276L6.77801 33.2221C6.81313 33.6787 6.81313 33.9947 6.74289 34.1352C6.67266 34.2406 6.5673 34.3459 6.35659 34.4162L6.21612 34.4513L6.46195 36.7691L11.9053 36.2072C13.5208 36.0316 14.6797 35.6102 15.3118 34.9781C16.0142 34.2757 16.26 33.5031 16.1195 32.2739C16.0142 31.4311 15.8035 30.8692 15.3821 30.3424C15.0309 29.921 14.6094 29.64 14.0827 29.4644ZM9.93868 31.0799L11.0976 30.9745C11.6595 30.9043 12.0458 30.9745 12.2916 31.1853C12.5726 31.396 12.6779 31.6418 12.7482 32.1335C12.7833 32.59 12.7482 32.9061 12.5375 33.1168C12.3267 33.3275 11.9756 33.5031 11.4488 33.5382L10.2196 33.6787L9.93868 31.0799ZM11.8 28.0246C11.6244 28.2002 11.2381 28.3407 10.7464 28.3758L9.69285 28.4811L9.48214 26.374L10.5357 26.2687C11.0625 26.1984 11.4488 26.2687 11.6595 26.4443C11.8702 26.5847 12.0107 26.7603 12.0458 27.252C12.0458 27.6734 11.9404 27.849 11.8 28.0246ZM29.9914 34.3108L29.7455 31.993L29.886 31.9579C30.0616 31.9227 30.2021 31.8174 30.2372 31.712C30.3074 31.5716 30.3074 31.2906 30.2723 30.8692L30.0967 29.324L27.1116 24.7937C26.9712 24.583 26.8658 24.4425 26.7253 24.3371C26.62 24.2669 26.5146 24.1967 26.4444 24.1615L26.3039 24.1264L26.0581 21.914L29.8509 21.5628L30.0265 23.1431C30.0616 23.4592 30.0967 23.705 30.167 23.9157C30.2372 24.1264 30.3074 24.302 30.4128 24.4776L31.2205 25.6716L31.7824 24.3371C31.8526 24.1615 31.8878 23.9508 31.9229 23.7401V22.9324L31.7473 21.3521L35.4347 20.9658L35.6806 23.1782L35.5752 23.2485C35.4699 23.2836 35.3996 23.3538 35.3294 23.4592C35.224 23.5645 35.1538 23.7401 35.0484 23.9508L33.0818 29.0079L33.2574 30.5531C33.2925 30.9745 33.3627 31.2204 33.4681 31.3608C33.5383 31.4662 33.6788 31.5364 33.8895 31.5364H34.03L34.2758 33.8543L29.9914 34.3108ZM21.6332 32.6251C22.0546 32.59 22.2653 32.4495 22.4058 32.1686C22.5814 31.8525 22.6165 31.4662 22.5462 30.8341L22.0546 25.9877C21.9843 25.4609 21.9141 25.18 21.8087 25.0044C21.7034 24.8639 21.5629 24.7586 21.3522 24.7234L21.2117 24.6883L21.001 22.6866L25.7069 21.9842L25.9527 24.1615L25.8474 24.2318C25.6015 24.3371 25.4611 24.4776 25.3908 24.583C25.3206 24.7234 25.3206 24.9342 25.3557 25.3556L25.8825 30.4478C26.0581 32.0632 25.8474 33.0817 25.2152 33.9245C24.6182 34.7322 23.5296 35.2239 21.9141 35.3995C20.2986 35.5751 19.1397 35.2941 18.3671 34.662C17.5594 33.9596 17.138 33.0114 16.9624 31.396L16.4356 26.3038C16.4005 25.9175 16.3303 25.7068 16.2249 25.5663C16.1547 25.4609 15.9791 25.3556 15.6981 25.3205L15.5576 25.2853L15.3118 23.108L20.0528 22.827L20.2635 24.8288L20.1582 24.899C19.9475 25.0044 19.8421 25.1097 19.7719 25.2853C19.7016 25.4609 19.7016 25.777 19.7368 26.2687L20.2635 31.1501C20.3338 31.7471 20.4742 32.1335 20.685 32.4144C20.8957 32.6602 21.1064 32.7656 21.5278 32.6953L21.6332 32.6251ZM33.5735 3.26602C33.6086 3.51185 33.433 3.72256 33.1871 3.72256C32.9413 3.75768 32.7306 3.58209 32.6955 3.33626C32.6604 3.09043 32.836 2.91484 33.0818 2.87972C33.3276 2.8446 33.5383 3.02019 33.5735 3.26602ZM32.8008 3.33626C32.836 3.51185 32.9764 3.65233 33.152 3.65233C33.3276 3.61721 33.4681 3.47673 33.433 3.30114C33.3979 3.12555 33.2574 2.98507 33.0818 2.98507C32.9062 2.98507 32.8008 3.16067 32.8008 3.33626ZM33.0818 3.51185H32.9764L32.9413 3.09043C32.9764 3.09043 33.0467 3.05531 33.1169 3.05531H33.2574C33.2925 3.05531 33.2925 3.09043 33.2925 3.12555C33.2925 3.16067 33.2574 3.19579 33.2223 3.2309C33.2574 3.2309 33.2925 3.26602 33.2925 3.33626C33.3627 3.47673 33.3627 3.47673 33.3627 3.51185H33.2574C33.2574 3.51185 33.2223 3.47673 33.2223 3.4065C33.2223 3.37138 33.1872 3.33626 33.1169 3.33626H33.0818V3.51185ZM33.0818 3.30114C33.1871 3.30114 33.2223 3.26602 33.2223 3.2309C33.2223 3.16067 33.1872 3.16067 33.1169 3.16067H33.0467L33.0818 3.30114ZM18.5778 18.367C18.1915 18.8235 18.0511 19.3503 18.0862 19.9473C18.1564 20.5092 18.4022 21.0009 18.8939 21.3872C19.3504 21.7735 19.8772 21.914 20.4742 21.8788C21.0713 21.8086 21.5629 21.5628 21.9141 21.1062C22.3004 20.6497 22.4409 20.1229 22.3706 19.5259C22.3004 18.9289 22.0546 18.4372 21.598 18.086C21.1415 17.6997 20.6147 17.5593 20.0177 17.6295C19.4558 17.6295 18.9641 17.9104 18.5778 18.367Z" fill="black"/>
</svg>
